<?xml version="1.0" encoding="UTF-8"?>
<svg width="800" height="600" viewBox="0 0 800 600" fill="none" xmlns="http://www.w3.org/2000/svg">
  <!-- Background -->
  <rect width="800" height="600" fill="#F5F5F5"/>

  <!-- Gradient overlay -->
  <defs>
    <linearGradient id="gradient" x1="0%" y1="0%" x2="100%" y2="100%">
      <stop offset="0%" style="stop-color:#DDA15E;stop-opacity:0.1" />
      <stop offset="100%" style="stop-color:#BC6C25;stop-opacity:0.2" />
    </linearGradient>
  </defs>

  <rect width="800" height="600" fill="url(#gradient)"/>

  <!-- Icon container -->
  <g transform="translate(400, 280)">
    <!-- Plate -->
    <ellipse cx="0" cy="20" rx="80" ry="15" fill="#999" opacity="0.3"/>
    <ellipse cx="0" cy="15" rx="80" ry="20" fill="#BBB" opacity="0.4"/>

    <!-- Fork -->
    <g transform="translate(-40, -10)">
      <rect x="-2" y="0" width="4" height="30" fill="#999" opacity="0.4"/>
      <rect x="-8" y="-10" width="3" height="10" fill="#999" opacity="0.4"/>
      <rect x="-3" y="-10" width="3" height="10" fill="#999" opacity="0.4"/>
      <rect x="2" y="-10" width="3" height="10" fill="#999" opacity="0.4"/>
      <rect x="7" y="-10" width="3" height="10" fill="#999" opacity="0.4"/>
    </g>

    <!-- Knife -->
    <g transform="translate(40, -10)">
      <rect x="-2" y="0" width="4" height="30" fill="#999" opacity="0.4"/>
      <path d="M 2 -10 L 2 0 L 8 0 L 8 -8 Z" fill="#999" opacity="0.4"/>
    </g>
  </g>

  <!-- Text -->
  <text x="400" y="380" font-family="Arial, sans-serif" font-size="18" fill="#999" text-anchor="middle" opacity="0.5">
    Imagen del Restaurante
  </text>
  <text x="400" y="405" font-family="Arial, sans-serif" font-size="14" fill="#999" text-anchor="middle" opacity="0.4">
    Próximamente
  </text>
</svg>