<?xml version="1.0" encoding="UTF-8"?>
<svg xmlns="http://www.w3.org/2000/svg" viewBox="0 0 800 900" width="800" height="900">
  <rect width="800" height="900" fill="#ffffff"/>
  <g transform="translate(0,0)">
    <path fill="#ffffff" d="M0 0h37v37H0z"/><path stroke="#2d3e33" d="M2 2.5h7m1 0h1m3 0h1m1 0h2m1 0h1m3 0h4m1 0h7M2 3.5h1m5 0h1m2 0h3m3 0h3m4 0h2m2 0h1m5 0h1M2 4.5h1m1 0h3m1 0h1m4 0h2m3 0h3m4 0h2m1 0h1m1 0h3m1 0h1M2 5.5h1m1 0h3m1 0h1m1 0h6m1 0h1m1 0h1m1 0h2m1 0h1m1 0h1m1 0h1m1 0h3m1 0h1M2 6.5h1m1 0h3m1 0h1m2 0h2m1 0h4m2 0h1m1 0h1m1 0h1m1 0h1m1 0h1m1 0h3m1 0h1M2 7.5h1m5 0h1m6 0h1m5 0h1m3 0h2m1 0h1m5 0h1M2 8.5h7m1 0h1m1 0h1m1 0h1m1 0h1m1 0h1m1 0h1m1 0h1m1 0h1m1 0h1m1 0h7M12 9.5h3m3 0h1m1 0h1m1 0h4M4 10.5h1m1 0h3m1 0h4m2 0h1m2 0h1m3 0h1m2 0h2m3 0h1m2 0h1M3 11.5h3m3 0h1m1 0h1m2 0h1m1 0h3m3 0h1m3 0h1m1 0h1m3 0h1m1 0h1M3 12.5h2m1 0h4m2 0h2m1 0h1m1 0h3m1 0h1m1 0h1m2 0h1m3 0h5M5 13.5h3m6 0h2m2 0h1m7 0h1m6 0h1M2 14.5h1m1 0h1m1 0h4m1 0h1m2 0h3m1 0h2m2 0h1m2 0h4m1 0h1m2 0h2M4 15.5h1m4 0h4m1 0h4m2 0h2m4 0h1m1 0h1m1 0h1m1 0h3M2 16.5h1m1 0h3m1 0h2m2 0h4m1 0h1m4 0h2m3 0h2m4 0h2M2 17.5h3m5 0h4m2 0h2m1 0h1m3 0h5m2 0h1m1 0h3M3 18.5h2m2 0h2m1 0h1m1 0h1m1 0h2m3 0h7m1 0h3m2 0h1M2 19.5h2m1 0h1m3 0h2m1 0h2m1 0h1m2 0h1m1 0h1m1 0h2m3 0h2m2 0h3M2 20.5h2m1 0h2m1 0h2m1 0h3m2 0h3m2 0h4m3 0h3m1 0h1m1 0h1M2 21.5h1m2 0h1m6 0h2m3 0h3m1 0h4m4 0h2M2 22.5h4m2 0h1m1 0h1m2 0h2m2 0h4m1 0h2m2 0h1m1 0h1m2 0h1m1 0h1M3 23.5h1m3 0h1m1 0h4m3 0h1m2 0h1m5 0h2m6 0h2M2 24.5h1m1 0h2m2 0h3m2 0h1m3 0h3m1 0h1m1 0h1m1 0h2m1 0h1m2 0h4M3 25.5h2m1 0h2m1 0h1m3 0h1m1 0h1m3 0h1m3 0h2m1 0h2m1 0h1m4 0h1M2 26.5h1m1 0h2m1 0h3m2 0h1m2 0h1m1 0h1m1 0h1m3 0h1m1 0h7m1 0h1M10 27.5h4m2 0h1m3 0h4m1 0h2m3 0h2m2 0h1M2 28.5h7m2 0h1m2 0h5m1 0h2m2 0h3m1 0h1m1 0h1m2 0h2M2 29.5h1m5 0h1m1 0h1m1 0h2m2 0h2m2 0h2m1 0h4m3 0h1m3 0h1M2 30.5h1m1 0h3m1 0h1m1 0h1m1 0h2m1 0h1m2 0h1m2 0h2m1 0h1m1 0h5m2 0h1M2 31.5h1m1 0h3m1 0h1m2 0h1m1 0h1m1 0h3m2 0h1m3 0h1m5 0h2M2 32.5h1m1 0h3m1 0h1m1 0h3m3 0h3m1 0h1m1 0h2m2 0h2m1 0h4m1 0h1M2 33.5h1m5 0h1m2 0h2m3 0h3m1 0h1m1 0h1m2 0h3m1 0h1m1 0h1m1 0h1M2 34.5h7m4 0h6m2 0h2m2 0h3m1 0h6"/>

  </g>
  <text x="400" y="840" text-anchor="middle" font-family="Arial, sans-serif" font-size="32" font-weight="bold" fill="#2d3e33">Turismo Cómbita</text>
  <text x="400" y="878" text-anchor="middle" font-family="Arial, sans-serif" font-size="20" fill="#699073">turismocombita.com</text>
</svg>